PathFileType	4	(X/Y/Z)	C:/Users/opensim2020/Desktop/walking_exp_matlab/subject03_walking08_straight_01.trc																																																																																																																																																							
DataRate	CameraRate	NumFrames	NumMarkers	Units	OrigDataRate	OrigDataStartFrame	OrigNumFrames																																																																																																																																																			
100	100	8	51	mm	100	708	451																																																																																																																																																			
Frame#	Time	LFHD			RFHD			LBHD			RBHD			C7			T10			CLAV			STRN			RBAK			LSHO			LUPA			LELB			LFRM			LWRA			LWRB			LFIN			RSHO			RUPA			RELB			RFRM			RWRA			RWRB			RFIN			LASI			RASI			LPSI			RPSI			LTHI			LKNE			LTIB			LANK			LHEE			LTOE			RTHI			RKNE			RTIB			RANK			RHEE			RTOE			*39			*40			*41			*42			*43			*44			*45			*46			*47			*48			*49			*50		
		X1	Y1	Z1	X2	Y2	Z2	X3	Y3	Z3	X4	Y4	Z4	X5	Y5	Z5	X6	Y6	Z6	X7	Y7	Z7	X8	Y8	Z8	X9	Y9	Z9	X10	Y10	Z10	X11	Y11	Z11	X12	Y12	Z12	X13	Y13	Z13	X14	Y14	Z14	X15	Y15	Z15	X16	Y16	Z16	X17	Y17	Z17	X18	Y18	Z18	X19	Y19	Z19	X20	Y20	Z20	X21	Y21	Z21	X22	Y22	Z22	X23	Y23	Z23	X24	Y24	Z24	X25	Y25	Z25	X26	Y26	Z26	X27	Y27	Z27	X28	Y28	Z28	X29	Y29	Z29	X30	Y30	Z30	X31	Y31	Z31	X32	Y32	Z32	X33	Y33	Z33	X34	Y34	Z34	X35	Y35	Z35	X36	Y36	Z36	X37	Y37	Z37	X38	Y38	Z38	X39	Y39	Z39	X40	Y40	Z40	X41	Y41	Z41	X42	Y42	Z42	X43	Y43	Z43	X44	Y44	Z44	X45	Y45	Z45	X46	Y46	Z46	X47	Y47	Z47	X48	Y48	Z48	X49	Y49	Z49	X50	Y50	Z50	X51	Y51	Z51
																																																																																																																																																										
226	2.25	-128.40189	1607.84839	-1060.82166	-138.47798	1614.74097	-927.72009	-252.77341	1555.04761	-1064.01672	-257.63065	1561.89319	-933.11823	-282.3096	1405.44348	-993.95221	-333.05548	1096.54724	-986.54535	-163.10417	1324.40784	-1001.0249	-131.6499	1155.94873	-1006.27838	-332.9151	1237.69958	-886.76538	-216.98424	1360.75037	-1154.65625	-243.32945	1161.88232	-1219.69177	-244.71094	1038.69336	-1230.41235	-216.39175	911.565	-1232.05786	-187.7635	795.45422	-1202.99866	-220.54417	798.1557	-1248.23206	-199.80266	716.17023	-1238.79602	-189.78104	1351.09021	-839.32489	-159.46527	1132.00537	-765.2915	-124.78084	1024.48706	-755.45215	-79.39684	895.62299	-763.7359	-37.01165	810.8479	-810.46771	-56.14326	798.06384	-761.53174	-19.69149	735.25684	-780.4798	-176.08499	925.53705	-1108.88867	-167.54205	925.32574	-871.98767	-337.75687	945.99176	-1056.52197	-329.1123	960.24512	-906.91772	-175.70764	625.52155	-1159.4082	-110.78799	460.92712	-1117.50964	-98.8031	272.34354	-1124.28699	-39.45866	67.94638	-1097.67615	-65.97292	26.46656	-1056.17505	115.53417	62.20307	-1087.05334	-257.72687	635.52197	-834.85242	-277.44354	456.66931	-869.86688	-363.88947	282.9852	-867.69446	-437.82071	78.01105	-918.12231	-486.98065	51.31936	-968.56586	-301.01849	30.72405	-935.66449	-218.37604	1661.78174	-1017.53101	NaN	NaN	NaN	NaN	NaN	NaN	NaN	NaN	NaN	NaN	NaN	NaN	NaN	NaN	NaN	NaN	NaN	NaN	NaN	NaN	NaN	NaN	NaN	NaN	NaN	NaN	NaN	NaN	NaN	NaN	NaN	NaN	NaN
227	2.26	-121.68314	1607.42444	-1062.17358	-131.94904	1614.36682	-929.05585	-245.96147	1554.29041	-1065.36206	-251.01347	1561.27905	-934.46466	-275.25656	1404.7998	-995.36267	-325.87723	1095.88269	-987.94305	-155.87108	1323.89343	-1002.12939	-124.26553	1155.46008	-1007.18835	-326.02393	1237.0592	-888.2959	-209.50455	1360.1554	-1155.96765	-236.09352	1161.08545	-1220.48682	-237.77206	1037.87	-1230.84778	-210.44727	910.43939	-1232.09631	-182.89702	794.06702	-1202.72278	-215.7168	797.00433	-1247.99255	-195.74278	714.79767	-1238.20886	-183.08595	1350.5686	-840.39069	-153.45857	1131.21741	-766.6908	-119.17668	1023.57111	-756.9538	-74.09757	894.63983	-765.58514	-31.81208	809.81207	-812.45477	-51.03028	796.95642	-763.57581	-14.78289	734.11359	-782.73871	-168.29329	924.82092	-1109.724	-160.78632	924.62494	-872.63214	-330.2222	945.45819	-1057.89941	-322.53677	959.66394	-908.12421	-168.83115	624.76526	-1159.23425	-104.589	460.32422	-1117.71838	-93.84431	271.17566	-1124.58777	-35.27231	66.65788	-1097.78711	-62.88603	26.79965	-1056.91321	119.56123	59.39991	-1086.60083	-252.10445	635.13214	-835.3847	-272.40585	456.28918	-869.93872	-360.92764	283.41757	-867.75275	-436.9234	79.03536	-917.93066	-486.25378	52.90351	-968.44659	-300.83694	30.65228	-935.51544	-211.77524	1661.14746	-1018.97992	NaN	NaN	NaN	NaN	NaN	NaN	NaN	NaN	NaN	NaN	NaN	NaN	NaN	NaN	NaN	NaN	NaN	NaN	NaN	NaN	NaN	NaN	NaN	NaN	NaN	NaN	NaN	NaN	NaN	NaN	NaN	NaN	NaN
228	2.27	-114.87571	1606.95776	-1063.4425	-125.37705	1614.01416	-930.32996	-239.07426	1553.61523	-1066.80688	-244.302	1560.66589	-935.92621	-268.12683	1404.20874	-996.83997	-318.42883	1095.27515	-989.50464	-148.5081	1323.46313	-1003.25812	-116.83042	1155.03625	-1008.09094	-319.08865	1236.49158	-889.92401	-201.86623	1359.58118	-1157.2384	-228.77628	1160.38293	-1221.3949	-230.84096	1037.05945	-1231.29883	-204.37788	909.46973	-1232.24121	-177.80597	792.85901	-1202.60193	-210.53406	795.96796	-1247.94885	-191.52031	713.56616	-1237.77795	-176.33472	1350.08923	-841.61133	-147.45309	1130.49731	-768.1098	-113.55058	1022.68695	-758.53577	-68.93542	893.56342	-767.32281	-26.75325	808.77429	-814.34723	-46.31305	795.83594	-765.65051	-10.13059	732.95056	-784.79047	-160.37219	924.21906	-1110.43665	-153.88185	923.97711	-873.42389	-322.65271	945.12555	-1059.34924	-315.27545	958.90247	-909.61835	-161.6563	624.08557	-1159.32532	-98.90643	458.7446	-1118.19739	-89.48437	269.90741	-1124.78418	-32.89317	65.06443	-1097.6106	-61.63313	26.35199	-1056.86914	122.07825	53.97897	-1085.84094	-246.36932	634.78058	-835.92932	-267.22534	455.90314	-870.02142	-357.81531	283.88388	-867.8031	-436.42117	80.33321	-917.46991	-486.14316	54.83769	-967.92596	-300.63495	30.43119	-935.51489	-205.16531	1660.63501	-1020.57758	NaN	NaN	NaN	NaN	NaN	NaN	NaN	NaN	NaN	NaN	NaN	NaN	NaN	NaN	NaN	NaN	NaN	NaN	NaN	NaN	NaN	NaN	NaN	NaN	NaN	NaN	NaN	NaN	NaN	NaN	NaN	NaN	NaN
229	2.28	-108.06625	1606.68359	-1064.7019	-118.6375	1613.87793	-931.72943	-232.11995	1553.04626	-1068.25159	-237.55891	1560.17322	-937.38751	-260.95026	1403.76343	-998.46912	-310.96692	1094.81299	-991.07941	-141.07098	1323.16809	-1004.46082	-109.19992	1154.75061	-1009.10822	-312.10632	1236.09851	-891.66077	-194.08131	1359.16272	-1158.70789	-221.33389	1159.8042	-1222.3302	-223.76552	1036.40125	-1231.93274	-198.13663	908.57404	-1232.45398	-172.49281	791.80609	-1202.5094	-205.1519	795.10852	-1247.9397	-187.0697	712.43134	-1237.45898	-169.55014	1349.7063	-842.87201	-141.40013	1129.89905	-769.57037	-107.96743	1021.88165	-760.11768	-63.85232	892.6272	-769.06757	-21.9349	807.7171	-816.10187	-41.77843	794.79205	-767.34814	-5.71789	731.69421	-786.74945	-152.35893	923.7757	-1111.10913	-147.01492	923.30499	-874.03754	-314.9104	944.98883	-1060.90234	-308.44611	958.46674	-910.95337	-153.9086	623.65875	-1160.01855	-92.93185	457.89987	-1118.72083	-85.55399	268.85486	-1124.68774	-31.47928	63.95976	-1097.2915	-61.51535	26.56043	-1056.0835	123.60004	45.70129	-1084.46619	-240.45155	634.39197	-836.50446	-261.87357	455.5289	-870.26642	-354.5011	284.40176	-867.84076	-435.60928	81.66952	-917.08588	-485.40808	56.75197	-967.60956	-300.41086	30.30489	-935.43176	-198.56369	1660.15564	-1022.04926	NaN	NaN	NaN	NaN	NaN	NaN	NaN	NaN	NaN	NaN	NaN	NaN	NaN	NaN	NaN	NaN	NaN	NaN	NaN	NaN	NaN	NaN	NaN	NaN	NaN	NaN	NaN	NaN	NaN	NaN	NaN	NaN	NaN
230	2.29	-101.0806	1606.65308	-1066.26965	-112.08662	1613.99402	-932.99219	-225.05023	1552.70447	-1069.79065	-230.72186	1559.9342	-938.89874	-253.71326	1403.47888	-1000.15094	-303.35443	1094.56055	-992.72021	-133.5818	1323.10327	-1005.72815	-101.60824	1154.70569	-1010.01227	-305.1431	1235.89551	-893.63867	-186.22691	1358.89001	-1160.25659	-213.76736	1159.28503	-1223.552	-216.4503	1035.84094	-1232.51721	-191.74532	907.79926	-1232.80371	-167.10118	790.85986	-1202.52686	-199.61404	794.35052	-1248.04407	-182.4469	711.51666	-1237.24451	-162.68178	1349.52454	-844.14215	-135.33434	1129.43738	-771.13519	-102.43162	1021.20068	-761.71216	-58.87044	891.70245	-770.71741	-17.17161	806.71552	-817.82166	-37.28391	793.74713	-769.11914	-1.47458	730.56604	-788.60077	-144.28664	923.65454	-1111.88367	-139.83745	922.78839	-874.80383	-307.20465	945.18243	-1062.58044	-301.19778	958.09448	-912.46918	-145.87642	624.28729	-1160.74768	-87.26076	457.60001	-1119.38867	-81.74728	268.32031	-1124.6748	-29.66331	63.30409	-1097.66125	-60.95359	27.05193	-1056.6499	125.19305	38.29349	-1082.07349	-234.41891	634.05164	-837.19562	-256.32663	455.25894	-870.63654	-351.01993	285.10526	-867.97076	-434.61478	83.26101	-916.65656	-485.03473	59.13122	-966.95233	-300.1261	30.20521	-935.24792	NaN	NaN	NaN	NaN	NaN	NaN	NaN	NaN	NaN	NaN	NaN	NaN	NaN	NaN	NaN	NaN	NaN	NaN	NaN	NaN	NaN	NaN	NaN	NaN	NaN	NaN	NaN	NaN	NaN	NaN	NaN	NaN	NaN	NaN	NaN	NaN
231	2.3	-94.20174	1607.07397	-1067.56396	-105.36695	1614.35059	-934.48401	-218.00032	1552.62927	-1071.27454	-223.86353	1559.91956	-940.45245	-246.32764	1403.56262	-1001.96185	-295.61615	1094.60559	-994.21558	-126.00075	1323.26843	-1007.02136	-93.96204	1154.8656	-1011.06256	-298.14847	1235.88733	-895.66803	-178.25385	1358.78064	-1161.85461	-206.08743	1159.00464	-1224.62976	-209.07205	1035.46167	-1233.39075	-185.22263	907.20038	-1233.31555	-161.43959	790.1582	-1202.70337	-193.96716	793.59558	-1248.00342	-177.56107	710.78143	-1237.21667	-155.76852	1349.55212	-845.46368	-129.30794	1129.13977	-772.67853	-96.84976	1020.67749	-763.30682	-54.01052	890.94525	-772.36902	-12.83253	805.56964	-819.72345	-32.99364	792.81799	-770.87207	2.52123	729.51733	-790.33411	-136.15282	923.91656	-1112.54053	-132.71869	922.38599	-875.54736	-299.25323	945.78168	-1064.24329	-293.80713	957.91876	-913.91266	-138.06285	625.49371	-1161.4115	-81.93122	457.76239	-1120.09985	-77.75604	268.19357	-1125.33435	-26.43998	63.26139	-1098.18201	-59.50334	28.18075	-1057.89282	128.12924	36.31984	-1079.97363	-228.04793	633.80713	-837.97406	-250.49509	455.04565	-871.08777	-347.28735	285.92526	-868.21906	-433.28085	85.09987	-916.43689	-484.18997	61.63438	-966.5907	-299.8197	30.28416	-934.88647	-186.39345	1663.63501	-1024.37207	NaN	NaN	NaN	NaN	NaN	NaN	NaN	NaN	NaN	NaN	NaN	NaN	NaN	NaN	NaN	NaN	NaN	NaN	NaN	NaN	NaN	NaN	NaN	NaN	NaN	NaN	NaN	NaN	NaN	NaN	NaN	NaN	NaN
232	2.31	-87.33897	1607.44128	-1068.71484	-98.54332	1615.00305	-935.92261	-210.76863	1552.86792	-1072.90283	-216.90007	1560.25659	-942.0238	-238.81438	1404.04443	-1003.7464	-287.95844	1094.974	-995.68665	-118.34657	1323.74805	-1008.35559	-86.17345	1155.3783	-1012.17865	-291.09677	1236.22778	-897.76416	-170.02379	1358.8905	-1163.49353	-198.14072	1158.90894	-1225.93652	-201.64465	1035.27454	-1234.50037	-178.44009	906.85278	-1233.87878	-155.69911	789.62585	-1202.95776	-187.98892	793.43372	-1248.61609	-172.3539	710.44037	-1237.31055	-148.67389	1349.86572	-846.83667	-123.23575	1129.14465	-774.30194	-91.29861	1020.41339	-764.87457	-49.28078	890.38971	-773.99475	-8.36304	804.89691	-820.99554	-28.91435	792.15851	-772.44672	6.15699	728.59161	-791.83997	-128.07561	924.62793	-1113.28174	-125.51676	922.1394	-876.3244	-291.1181	946.67688	-1065.74536	-286.31122	958.04065	-915.25525	-130.45848	627.08105	-1161.80115	-76.76903	458.2818	-1120.69934	-73.20553	268.60153	-1126.48132	-24.041	63.43499	-1098.07654	-58.08562	29.16757	-1058.21375	130.32208	35.26067	-1081.10522	-221.57497	633.7193	-838.75842	-244.3882	454.95389	-871.69513	-343.28403	286.95068	-868.53333	-432.12466	87.23196	-916.05737	-483.2662	64.60224	-966.3855	-299.51001	30.22949	-934.74573	-178.47803	1660.48108	-1027.20374	NaN	NaN	NaN	NaN	NaN	NaN	NaN	NaN	NaN	NaN	NaN	NaN	NaN	NaN	NaN	NaN	NaN	NaN	NaN	NaN	NaN	NaN	NaN	NaN	NaN	NaN	NaN	NaN	NaN	NaN	NaN	NaN	NaN
233	2.32	-80.33022	1608.3363	-1070.2439	-91.7036	1615.96497	-937.43225	-203.55942	1553.33203	-1074.48474	-209.80339	1560.77844	-943.64948	-231.07603	1404.72119	-1005.61145	-280.39413	1095.70618	-996.99512	-110.68682	1324.52234	-1009.73669	-78.33575	1156.16589	-1013.26306	-283.90536	1236.84949	-899.84393	-161.72195	1359.26355	-1165.1377	-189.98709	1159.09924	-1227.42749	-193.75751	1035.45898	-1235.46899	-171.47356	906.74646	-1234.51941	-149.71709	789.48126	-1203.24695	-181.85664	793.23419	-1248.73401	-166.79358	710.38275	-1237.52332	-141.53796	1350.38013	-848.30505	-117.18266	1129.46704	-775.93311	-85.7837	1020.48389	-766.55621	-44.72004	890.0849	-775.53595	-4.23996	804.2937	-822.58105	-25.08944	791.69269	-773.92877	9.61509	727.95215	-793.1499	-120.08171	925.8681	-1114.02441	-118.24605	922.14459	-877.28101	-283.59351	948.45306	-1067.14587	-278.72238	958.36584	-916.49023	-123.12628	628.99487	-1161.90747	-70.95226	459.77264	-1121.10059	-68.48862	269.43381	-1127.62561	-23.2013	63.49259	-1097.63342	-57.52767	29.35122	-1058.10413	131.24467	34.3101	-1082.30273	-214.80418	633.79095	-839.6687	-237.9482	455.05026	-872.39441	-338.99509	288.2131	-868.99054	-430.45383	89.73869	-915.86713	-482.39066	68.12296	-965.95245	-299.22415	30.26614	-934.60681	NaN	NaN	NaN	NaN	NaN	NaN	NaN	NaN	NaN	NaN	NaN	NaN	NaN	NaN	NaN	NaN	NaN	NaN	NaN	NaN	NaN	NaN	NaN	NaN	NaN	NaN	NaN	NaN	NaN	NaN	NaN	NaN	NaN	NaN	NaN	NaN
